<?xml version="1.0" encoding="UTF-8"?>
<!-- Generator: Adobe Illustrator 19.1.0, SVG Export Plug-In . SVG Version: 6.00 Build 0)  -->
<!DOCTYPE svg PUBLIC "-//W3C//DTD SVG 1.1//EN" "http://www.w3.org/Graphics/SVG/1.1/DTD/svg11.dtd">
<svg xmlns="http://www.w3.org/2000/svg" xmlns:xlink="http://www.w3.org/1999/xlink" xmlns:dc="http://purl.org/dc/elements/1.1/" xmlns:cc="http://creativecommons.org/ns#" xmlns:rdf="http://www.w3.org/1999/02/22-rdf-syntax-ns#" version="1.1" id="DESIGNS" x="0px" y="0px" width="64px" height="64px" viewBox="0 0 64 64" style="enable-background:new 0 0 64 64;" xml:space="preserve">
<title property="dc:title">to kill</title><desc property="dc:description">An icon for "kill" from the Fandom series on to [icon]. Downloaded from http://www.toicon.com/icons/fandom_kill by 103.142.140.79 on 2022-02-10. Licensed CC-BY, see http://toicon.com/license/ for details.</desc>
<g>
	<g>
		<path class="fandom_tien" d="M32,7C18.193,7,7,18.193,7,32h50C57,18.193,45.807,7,32,7z" style="fill: #8579A3;"/>
		<path class="fandom_negen" d="M32,57c13.807,0,25-11.193,25-25H7C7,45.807,18.193,57,32,57z" style="fill: #685683;"/>
	</g>
	<g>
		<path class="fandom_dertien" d="M47.688,9.255c-0.266-0.589-0.978-0.858-1.567-0.592l-4.687,2.116l2.874,30.961l13.911-6.28    c0.589-0.265,0.858-0.978,0.592-1.567L47.688,9.255z" style="fill: #AA9991;"/>
		<polygon class="fandom_veertien" points="40.088,43.645 27.99,16.848 41.435,10.778 44.309,41.739   " style="fill: #EFEAE0;"/>
		<path class="fandom_vijftien" d="M18.449,54.692c0.269,0.596,0.971,0.861,1.567,0.592l40.757-18.401    c0.596-0.269,0.861-0.971,0.592-1.567L48.551,6.933c-0.269-0.596-0.971-0.861-1.567-0.592L6.227,24.742    c-0.596,0.269-0.861,0.971-0.592,1.567L18.449,54.692z M58.219,35.459l-18.132,8.186L27.99,16.848l18.132-8.186    c0.589-0.266,1.301,0.003,1.567,0.592l11.123,24.638C59.077,34.481,58.808,35.194,58.219,35.459z M44.11,38.317l-1.966-0.365    l3.399-18.312l1.417-2.153l0.55,2.518L44.11,38.317z" style="fill: #3A3A3A;"/>
		<path class="fandom_zeventien" d="M43.874,39.587l0.236-1.27l-1.966-0.365l-0.236,1.27C41.666,40.523,43.632,40.888,43.874,39.587    z" style="fill: #666666;"/>
		<path class="fandom_twaalf" d="M21.419,34.126c-0.054-0.402-0.469-3.978,1.381-5.65c0.983-0.886,2.323,0.596,1.342,1.484    c-0.911,0.823-0.838,3.152-0.74,3.904C23.573,35.181,21.592,35.433,21.419,34.126z" style="fill: #644638;"/>
		<path class="fandom_een" d="M15.192,48.512c7.18,4.988,16.532-5.091,12.798-12.731c-0.486-0.994-1.278-1.473-2.2-0.674    c-2.252,1.953-5.977,1.424-7.217,0.128c-0.354-0.248-0.619-0.981-0.353-1.547c0.401-0.85,2.311-1.668,3.186-2.009    c0.025-0.216,0.059-0.438,0.103-0.659c-5.842,0.597-10.109,5.268-8.953,11.789C12.929,44.911,13.838,46.879,15.192,48.512z" style="fill: #FF786E;"/>
		<path class="fandom_twee" d="M23.557,31.04c-0.28,1.012-0.224,2.301-0.156,2.824c0.171,1.316-1.81,1.569-1.982,0.262    c-0.028-0.207-0.151-1.252-0.012-2.447c-0.875,0.341-2.786,1.159-3.186,2.009c-0.266,0.566-0.001,1.3,0.353,1.547    c1.239,1.295,4.965,1.825,7.217-0.128c0.922-0.8,1.714-0.321,2.2,0.674c3.734,7.639-5.618,17.719-12.798,12.731    c-0.022,0.017,1.056,1.214,1.72,1.663c3.071,2.079,13.052,2.65,15.932-4.925C35.668,37.821,32.109,31.001,23.557,31.04z" style="fill: #BE5652;"/>
	</g>
</g>
<metadata><work rdf:about=""><format>image/svg+xml</format><type rdf:resource="http://purl.org/dc/dcmitype/StillImage"/><license rdf:resource="http://creativecommons.org/licenses/by/4.0/"/><attributionname>Carol Liao</attributionname><attributionurl>http://www.toicon.com/icons/fandom_kill</attributionurl></work></metadata></svg>
